<?xml version="1.0" encoding="UTF-8"?>
<svg xmlns="http://www.w3.org/2000/svg" xmlns:xlink="http://www.w3.org/1999/xlink" width="64px" height="64px" viewBox="0 0 64 64" version="1.1">
<g id="surface1">
<path style=" stroke:none;fill-rule:nonzero;fill:rgb(0%,0%,0%);fill-opacity:1;" d="M 36.996094 19.574219 L 9.257812 19.574219 C 8.492188 19.574219 7.871094 18.953125 7.871094 18.183594 C 7.871094 17.417969 8.492188 16.792969 9.257812 16.792969 L 36.996094 16.792969 C 37.765625 16.792969 38.386719 17.417969 38.386719 18.183594 C 38.386719 18.953125 37.765625 19.574219 36.996094 19.574219 Z M 36.996094 19.574219 "/>
<path style=" stroke:none;fill-rule:nonzero;fill:rgb(0%,0%,0%);fill-opacity:1;" d="M 30.375 25.804688 L 9.257812 25.804688 C 8.492188 25.804688 7.871094 25.179688 7.871094 24.414062 C 7.871094 23.644531 8.492188 23.023438 9.257812 23.023438 L 30.375 23.023438 C 31.144531 23.023438 31.765625 23.644531 31.765625 24.414062 C 31.765625 25.179688 31.144531 25.804688 30.375 25.804688 Z M 30.375 25.804688 "/>
<path style=" stroke:none;fill-rule:nonzero;fill:rgb(0%,0%,0%);fill-opacity:1;" d="M 16.25 44.492188 L 9.257812 44.492188 C 8.492188 44.492188 7.871094 43.871094 7.871094 43.101562 C 7.871094 42.335938 8.492188 41.710938 9.257812 41.710938 L 16.25 41.710938 C 17.015625 41.710938 17.636719 42.335938 17.636719 43.101562 C 17.636719 43.871094 17.015625 44.492188 16.25 44.492188 Z M 16.25 44.492188 "/>
<path style=" stroke:none;fill-rule:nonzero;fill:rgb(0%,0%,0%);fill-opacity:1;" d="M 13.21875 50.722656 L 9.257812 50.722656 C 8.492188 50.722656 7.871094 50.097656 7.871094 49.332031 C 7.871094 48.5625 8.492188 47.941406 9.257812 47.941406 L 13.21875 47.941406 C 13.984375 47.941406 14.609375 48.5625 14.609375 49.332031 C 14.609375 50.097656 13.984375 50.722656 13.21875 50.722656 Z M 13.21875 50.722656 "/>
<path style=" stroke:none;fill-rule:nonzero;fill:rgb(0%,0%,0%);fill-opacity:1;" d="M 61.78125 6.445312 L 58.613281 4.082031 C 57.8125 3.484375 56.832031 3.238281 55.847656 3.382812 C 54.863281 3.523438 53.992188 4.042969 53.398438 4.839844 C 53.394531 4.839844 53.394531 4.84375 53.394531 4.84375 L 45.535156 15.496094 L 45.535156 4.917969 C 45.535156 4.148438 44.914062 3.527344 44.148438 3.527344 L 38.386719 3.527344 L 38.386719 1.390625 C 38.386719 0.621094 37.765625 0 36.996094 0 C 36.230469 0 35.609375 0.621094 35.609375 1.390625 L 35.609375 3.527344 L 31.453125 3.527344 L 31.453125 1.390625 C 31.453125 0.621094 30.832031 0 30.0625 0 C 29.296875 0 28.671875 0.621094 28.671875 1.390625 L 28.671875 3.527344 L 24.519531 3.527344 L 24.519531 1.390625 C 24.519531 0.621094 23.894531 0 23.128906 0 C 22.359375 0 21.738281 0.621094 21.738281 1.390625 L 21.738281 3.527344 L 17.582031 3.527344 L 17.582031 1.390625 C 17.582031 0.621094 16.960938 0 16.195312 0 C 15.425781 0 14.804688 0.621094 14.804688 1.390625 L 14.804688 3.527344 L 10.648438 3.527344 L 10.648438 1.390625 C 10.648438 0.621094 10.027344 0 9.257812 0 C 8.492188 0 7.871094 0.621094 7.871094 1.390625 L 7.871094 3.527344 L 2.109375 3.527344 C 1.34375 3.527344 0.71875 4.148438 0.71875 4.917969 L 0.71875 62.609375 C 0.71875 63.378906 1.34375 64 2.109375 64 L 44.148438 64 C 44.914062 64 45.535156 63.378906 45.535156 62.609375 L 45.535156 34.863281 L 62.542969 11.664062 C 62.542969 11.660156 62.542969 11.660156 62.542969 11.660156 C 63.769531 10.015625 63.429688 7.675781 61.78125 6.445312 Z M 42.757812 61.21875 L 3.5 61.21875 L 3.5 6.304688 L 7.871094 6.304688 L 7.871094 8.441406 C 7.871094 9.210938 8.492188 9.832031 9.257812 9.832031 C 10.027344 9.832031 10.648438 9.210938 10.648438 8.441406 L 10.648438 6.304688 L 14.804688 6.304688 L 14.804688 8.441406 C 14.804688 9.210938 15.425781 9.832031 16.195312 9.832031 C 16.960938 9.832031 17.582031 9.210938 17.582031 8.441406 L 17.582031 6.304688 L 21.738281 6.304688 L 21.738281 8.441406 C 21.738281 9.210938 22.359375 9.832031 23.128906 9.832031 C 23.894531 9.832031 24.519531 9.210938 24.519531 8.441406 L 24.519531 6.304688 L 28.671875 6.304688 L 28.671875 8.441406 C 28.671875 9.210938 29.296875 9.832031 30.0625 9.832031 C 30.832031 9.832031 31.453125 9.210938 31.453125 8.441406 L 31.453125 6.304688 L 35.609375 6.304688 L 35.609375 8.441406 C 35.609375 9.210938 36.230469 9.832031 36.996094 9.832031 C 37.765625 9.832031 38.386719 9.210938 38.386719 8.441406 L 38.386719 6.304688 L 42.757812 6.304688 L 42.757812 19.308594 L 35.507812 29.253906 L 9.257812 29.253906 C 8.492188 29.253906 7.871094 29.875 7.871094 30.644531 C 7.871094 31.410156 8.492188 32.03125 9.257812 32.03125 L 33.484375 32.03125 C 33.484375 32.03125 25.582031 42.875 25.578125 42.878906 C 25.578125 42.878906 25.582031 42.878906 25.582031 42.878906 C 25.492188 43.003906 25.417969 43.144531 25.375 43.300781 L 22.195312 54.171875 L 9.257812 54.171875 C 8.492188 54.171875 7.871094 54.792969 7.871094 55.5625 C 7.871094 56.328125 8.492188 56.949219 9.257812 56.949219 C 9.257812 56.949219 23.253906 56.949219 23.261719 56.949219 C 23.261719 56.949219 23.261719 56.949219 23.257812 56.949219 C 23.515625 56.945312 23.769531 56.871094 23.992188 56.726562 L 34.378906 50.015625 C 34.523438 49.921875 34.640625 49.808594 34.738281 49.679688 C 34.742188 49.675781 42.757812 38.675781 42.757812 38.675781 Z M 27.480469 46 L 31.191406 48.765625 L 25.621094 52.367188 Z M 33.328125 46.894531 L 28.640625 43.398438 L 50.558594 13.320312 L 55.25 16.816406 Z M 56.898438 14.578125 L 52.210938 11.082031 L 53.707031 9.078125 L 58.394531 12.574219 Z M 60.3125 10 L 60.058594 10.34375 L 55.367188 6.847656 L 55.625 6.503906 C 55.777344 6.300781 55.996094 6.167969 56.246094 6.132812 C 56.5 6.09375 56.746094 6.160156 56.949219 6.308594 L 60.121094 8.671875 C 60.539062 8.984375 60.625 9.582031 60.3125 10 Z M 60.3125 10 "/>
</g>
</svg>
